{"title":"Mr.Nice.2010.BDRip.XVID.AC3.HQ.Hive-CM8","uid":6146348,"size":1872530841,"categoryP":"video","categoryS":"movies","magnet":"?xt=urn:btih:68e395d8e0aff47f29c9d053a5556e210b929f1c&amp;dn=Mr.Nice.2010.BDRip.XVID.AC3.HQ.Hive-CM8&amp;tr=udp%3A%2F%2Ftracker.openbittorrent.com%3A80&amp;tr=udp%3A%2F%2Fopen.demonii.com%3A1337&amp;tr=udp%3A%2F%2Ftracker.coppersurfer.tk%3A6969&amp;tr=udp%3A%2F%2Fexodus.desync.com%3A6969","seeders":0,"leechers":1,"uploader":"TvTeam","files":6,"time":1296688090,"description":". \n  &lt;a href=&quot;\nhttp://www.torrentday.com/&quot; rel=&quot;nofollow&quot; target=&quot;_NEW&quot;&gt;\nhttp://www.torrentday.com/&lt;/a&gt;        :     The Hottest Private Tracker On The Net!!!\n &lt;a href=&quot;\nhttp://www.torrentday.com&quot; rel=&quot;nofollow&quot; target=&quot;_NEW&quot;&gt;\nhttp://www.torrentday.com&lt;/a&gt;          :     Once &amp; For all ;)\n\n\n               www . TorrentDay . Com \n\n(((((((((((((= Enjoy No RAR releases =))))))))))))))))))))\n\n\n...................................NFO:....................................\n\n.[img]http://img585.imageshack.us/img585/5439/mrnice.jpg[/img]\n\nMr Nice 2010 BDRip XVID AC3 HQ Hive-CM8\n\n\n\n[b]Thx Hive\n\nCM8 Doing It Right The First Time :D\n\nWhy download a touched up rip of a rip BRrip\nGet the real deal BDRip\nEnjoy\n\nSource UK Bluray\n\nVideo: 720x384 @bitrate 1600 2pass\nAudio: DTS to AC3 5.1 @448\nSample: yes included\nSubs: yes english in srt /subs[/b]\n &lt;a href=&quot;\nhttp://www.imdb.com/title/tt1183911/&quot; rel=&quot;nofollow&quot; target=&quot;_NEW&quot;&gt;\nhttp://www.imdb.com/title/tt1183911/&lt;/a&gt;\n\n\nGeneral\nComplete name                    : Mr.Nice.2010.BDRip.XVID.AC3.HQ.Hive-CM8.avi\nFormat                           : AVI\nFormat/Info                      : Audio Video Interleave\nFile size                        : 1.74 GiB\nDuration                         : 2h 0mn\nOverall bit rate                 : 2 057 Kbps\nWriting application              : Nandub v1.0rc2\nWriting library                  : Nandub build 1853/release\n\nVideo\nID                               : 0\nFormat                           : MPEG-4 Visual\nFormat profile                   : Advanced Simple@L5\nFormat settings, BVOP            : Yes\nFormat settings, QPel            : Yes\nFormat settings, GMC             : No warppoints\nFormat settings, Matrix          : Default (H.263)\nMuxing mode                      : Packed bitstream\nCodec ID                         : XVID\nCodec ID/Hint                    : XviD\nDuration                         : 2h 0mn\nBit rate                         : 1 599 Kbps\nWidth                            : 720 pixels\nHeight                           : 384 pixels\nDisplay aspect ratio             : 1.850\nFrame rate                       : 23.976 fps\nColor space                      : YUV\nChroma subsampling               : 4:2:0\nBit depth                        : 8 bits\nScan type                        : Progressive\nBits/(Pixel*Frame)               : 0.241\nStream size                      : 1.35 GiB (78%)\nWriting library                  : XviD 1.2.1 (UTC 2008-12-04)\n\nAudio\nID                               : 1\nFormat                           : AC-3\nFormat/Info                      : Audio Coding 3\nMode extension                   : CM (complete main)\nCodec ID                         : 2000\nDuration                         : 2h 0mn\nBit rate mode                    : Constant\nBit rate                         : 448 Kbps\nChannel(s)                       : 6 channels\nChannel positions                : Front: L C R, Side: L R, LFE\nSampling rate                    : 48.0 KHz\nBit depth                        : 16 bits\nStream size                      : 388 MiB (22%)\nAlignment                        : Split accross interleaves\nInterleave, duration             : 42 ms (1.00 video frame)\nInterleave, preload duration     : 500 ms\n\n\n\n\nRhys Ifans - Howard Marks                                \nChlo Sevigny - Judy Marks                              \nDavid Thewlis - Jim McCann                              \nElsa Pataky - Ilze                                      \nAndrew Tiernan - Alan Marcuson\nOmid Djalili - Saleem Makik\nJack Huston - Graham Plinston        \nAnia Sowinski - Mandy\nChristian McKay - Hamilton McMillan\nKinsey Packard - Patti Hayes\nKen Russell - Russell Miegs        \nCraig Stevenson - Webster\nLuis Tosar - Lovato  \n\n\n\nThe life story of Howard Marks, an elite British drug smuggler.  \n\n\n[img]http://img138.imageshack.us/img138/6483/mmrmmrmrrr.png[/img]\n[img]http://img543.imageshack.us/img543/6548/mmmrmrrr.png[/img]\n[img]http://img842.imageshack.us/img842/636/mmmrrr.png[/img]\n[img]http://img69.imageshack.us/img69/5703/mmrr.png[/img]\n[img]http://img546.imageshack.us/img546/5396/86163355.png[/img]\n[img]http://img695.imageshack.us/img695/7530/mmmrmrmrrr.png[/img]\n[img]http://img98.imageshack.us/img98/5313/mmrmmmrrmrrr.png[/img]\n\n\n\n\nGreetz\n\niNK,LUSi,,MAGNET,CLASSiFiED,THC,LEGi0N,T0XiC,IMAGiNE,ViSiON,WBZ,FLAWL3SS,NOVA\nVik,Rapeseed,D2U,SAFC,goldadvance,MEMORY100,KaN1vE,Unevano,Pinnz,Wayne,Mr Hive\nand all P2P groups \nGreat Work Guys :D","torrent":{"xt":"urn:btih:68e395d8e0aff47f29c9d053a5556e210b929f1c","amp;dn":"Mr.Nice.2010.BDRip.XVID.AC3.HQ.Hive-CM8","amp;tr":["udp%3A%2F%2Ftracker.openbittorrent.com%3A80","udp%3A%2F%2Fopen.demonii.com%3A1337","udp%3A%2F%2Ftracker.coppersurfer.tk%3A6969","udp%3A%2F%2Fexodus.desync.com%3A6969"],"infoHash":"68e395d8e0aff47f29c9d053a5556e210b929f1c","infoHashBuffer":{"type":"Buffer","data":[104,227,149,216,224,175,244,127,41,201,208,83,165,85,110,33,11,146,159,28]},"announce":[],"urlList":[]}}